<svg xmlns="http://www.w3.org/2000/svg" fill="none" viewBox="0 0 78 30.0759"><path fill="#E13E1D" fill-rule="evenodd" d="M24 0c3.3137 0 6 2.68628 6 6v9.4706l6.0919 6.4503c1.5785 1.6713 4.2377 1.6713 5.8162 0L48 15.4706V6c0-3.31372 2.6863-6 6-6v9.37939C56.0575 7.8454 58.5697 7 61.1726 7H78l-6 6H60.6627c-1.6954 0-3.3116.7173-4.4492 1.9745L44.9323 27.4432c-3.176 3.5103-8.6886 3.5103-11.8646 0L21.7865 14.9745C20.6489 13.7173 19.0327 13 17.3373 13H6L0 7h16.8274c2.6029 0 5.1151.8454 7.1726 2.37939V0Zm8 13h14l-5.2928 5.2929C40.2544 18.7457 39.6403 19 39 19c-.6403 0-1.2544-.2543-1.7072-.7071L32 13ZM8 15h10l2 2h-8.3431c-1.061 0-2.07829-.4214-2.82853-1.1716L8 15Zm62 0-.8284.8284C68.4214 16.5786 67.4041 17 66.3431 17H58l2-2h10Zm-58 4h8l2 2h-6.3431c-1.061 0-2.0783-.4214-2.8285-1.1716L12 19Zm54 0-.8284.8284C64.4214 20.5786 63.4041 21 62.3431 21H56l2-2h8Z"/></svg>